<?xml version="1.0" encoding="utf-8"?>
<!-- Generator: Adobe Illustrator 17.0.0, SVG Export Plug-In . SVG Version: 6.00 Build 0)  -->
<!DOCTYPE svg PUBLIC "-//W3C//DTD SVG 1.1//EN" "http://www.w3.org/Graphics/SVG/1.1/DTD/svg11.dtd">
<svg version="1.1" id="Layer_1" xmlns="http://www.w3.org/2000/svg" xmlns:xlink="http://www.w3.org/1999/xlink" x="0px" y="0px"
	 width="446.897px" height="91.066px" viewBox="0 0 446.897 91.066" enable-background="new 0 0 446.897 91.066"
	 xml:space="preserve">
<g>
	<polygon fill="#114252" points="62.71,66.884 90.387,66.884 76.342,53.665 59.405,51.186 	"/>
	<polygon fill="#B2D8E4" stroke="#3784A3" stroke-width="0.5" stroke-miterlimit="10" points="90.068,66.582 77.056,45.514 
		62.391,46.754 62.391,51.711 66.315,56.049 	"/>
	<polygon fill="#86C2D7" stroke="#3784A3" stroke-width="0.5" stroke-miterlimit="10" points="74.396,53.389 93.398,31.701 
		76.462,26.434 57.459,39.575 	"/>
	<polygon fill="#8FC7DB" stroke="#3784A3" stroke-width="0.5" stroke-miterlimit="10" points="81.164,17.256 58.856,15.412 
		46.567,21.526 46.876,32.06 50.369,34.745 54.312,40.115 	"/>
	<polygon fill="#B2D8E4" stroke="#3784A3" stroke-width="0.5" stroke-miterlimit="10" points="81.367,40.283 81.367,17.424 
		54.515,40.283 59.06,48.131 67.941,48.131 	"/>
	<polygon fill="#7DBED4" stroke="#3784A3" stroke-width="0.5" stroke-miterlimit="10" points="54.154,0.512 62.416,29.842 
		50.436,36.452 38.457,18.482 	"/>
	<polygon fill="#114252" points="6.352,21.683 18.331,46.056 32.79,43.577 32.79,33.87 	"/>
	<polygon fill="#B2D8E4" stroke="#3784A3" stroke-width="0.5" stroke-miterlimit="10" points="31.547,21.838 6.968,21.838 
		33.406,34.025 40.429,24.73 	"/>
	<polygon fill="#00121F" points="33.499,70.877 41.94,85.261 52.502,70.877 40.109,64.336 	"/>
	<polygon fill="#B2D8E4" stroke="#3784A3" stroke-width="0.5" stroke-miterlimit="10" points="16.692,70.335 38.999,72.18 
		51.288,66.065 50.979,55.532 47.486,52.846 43.543,47.476 	"/>
	<polygon fill="#78BAD1" stroke="#3784A3" stroke-width="0.5" stroke-miterlimit="10" points="0.452,56.074 21.933,62.063 
		33.499,48.018 29.575,40.169 20.693,33.147 	"/>
	<polygon fill="#8FC7DB" stroke="#3784A3" stroke-width="0.5" stroke-miterlimit="10" points="16.522,47.315 16.522,70.174 
		43.373,47.315 38.829,39.466 29.948,39.466 	"/>
	<polygon fill="#81C0D6" stroke="#479BBB" stroke-width="0.5" stroke-miterlimit="10" points="43.414,90.567 35.152,60.824 
		50.436,51.186 66.34,58.759 64.069,68.26 	"/>
	<polygon fill="#81C0D6" stroke="#479BBB" stroke-width="0.5" stroke-miterlimit="10" points="74.628,73.397 44.678,66.788 
		44.678,46.546 70.28,39.911 71.937,57.064 	"/>
	<polygon fill="#B2D8E4" stroke="#3784A3" stroke-width="0.5" stroke-miterlimit="10" points="21.726,11.253 52.502,17.862 
		52.502,43.474 33.499,45.54 	"/>
	<polygon fill="#48A2C3" stroke="#3787A6" stroke-width="0.5" stroke-miterlimit="10" points="72.008,34.274 71.896,43.767 
		46.396,49.552 36.397,43.035 37.858,30.679 	"/>
	<polygon fill="#0C3A49" stroke="#00121F" stroke-width="0.5" stroke-miterlimit="10" points="58.344,60.927 71.825,43.852 
		42.617,31.719 46.212,50.144 	"/>
	<polygon fill="#B2D8E4" stroke="#3784A3" stroke-width="0.5" stroke-miterlimit="10" points="39.102,23.919 29.44,40.994 
		52.47,50.88 44.045,39.197 47.639,32.907 	"/>
	<polygon fill="#2F7089" points="25.44,51.549 29.218,41.027 52.888,51.137 	"/>
</g>
<g>
	<path fill="#3787A6" d="M206.793,28.138c-1.033-4.544-6.609-5.783-6.609-5.783s-32.651-0.363-36.766,0
		c-7.023,0.62-7.023,7.436-7.023,7.436v40.484h16.111l0.013-6.206h-10.237V42.381h10.121v-8.262c0,0,0.207-2.891,3.305-2.891
		c3.098,0,14.665,0,14.665,0s3.532-0.62,3.397,2.685c-0.102,2.485,0.115,12.187,0.115,12.187s0.056,3.137-2.685,3.408
		c-2.996,0.297-21.688,0.207-21.688,0.207v8.133h31.779c4.903-0.611,5.503-6.575,5.503-6.575S207.35,30.588,206.793,28.138z"/>
	<path fill="#3787A6" d="M213.093,69.845V22.613h16.661v12.393h27.54c0,0,6.886-0.275,7.023,7.023
		c0.137,7.297,0.003,27.799,0.003,27.799h-14.739l-0.129-24.906l-19.842-0.043l0.006,24.931L213.093,69.845z"/>
	<rect x="271.03" y="35.212" fill="#3787A6" width="14.871" height="34.408"/>
	<rect x="271.03" y="21.683" fill="#3787A6" width="14.871" height="8.365"/>
	<path fill="#3787A6" d="M294.645,69.723V28.706c0,0-0.31-6.713,6.609-6.713c6.92,0,36.25,0,36.25,0s6.609,1.239,6.609,6.713
		c0,5.473,0,41.017,0,41.017l-14.665-0.224l-0.103-36.662c0,0,0.061-1.446-1.507-1.283l-16.656-0.019c0,0-1.707-0.093-1.872,1.095
		l0.103,37.093H294.645z"/>
	<path fill="#3787A6" d="M394.753,21.89H358.71c0,0-6.816,1.033-7.023,6.713c-0.207,5.68,0,14.665,0,14.665s0.002,5.519,5.21,6.516
		l35.388-0.01v-8.147c0,0-21.688,0-23.03-0.103c-1.343-0.103-1.446-1.446-1.446-1.446s-0.103-7.023,0-8.468
		c0.103-1.446,1.652-1.656,1.652-1.656s14.355,0.107,16.317,0.004c1.962-0.103,1.756,1.652,1.756,1.652v3.408h10.844v21.831
		l-10.827,0.05c0,0,0.086,1.046-0.017,2.802c-0.103,1.756-1.549,1.859-1.549,1.859h-33.882l0.004,8.062h42.748
		c0,0,7.229-0.328,7.436-6.524V28.603C402.292,28.603,402.395,21.89,394.753,21.89z"/>
	<path fill="#B2D8E4" d="M408.869,24.335"/>
	<text transform="matrix(1 0 0 1 407.627 66.6082)" fill="#3787A6" font-family="'Arial-Black'" font-size="59.486">&gt;</text>
	<text transform="matrix(1 0 0 1 111.5742 66.6082)" fill="#3787A6" font-family="'Arial-Black'" font-size="59.486">&lt;</text>
</g>
</svg>
